Coordinates
version=1
nRows=14
nColumns=40
inDegrees=yes

Units are S.I. units (second, meters, Newtons, ...)
If the header above contains a line with 'inDegrees', this indicates whether rotational values are in degrees (yes) or radians (no).

endheader
time	pelvis_tilt	pelvis_list	pelvis_rotation	pelvis_tx	pelvis_ty	pelvis_tz	hip_flexion_r	hip_adduction_r	hip_rotation_r	knee_angle_r	knee_angle_r_beta	ankle_angle_r	subtalar_angle_r	mtp_angle_r	hip_flexion_l	hip_adduction_l	hip_rotation_l	knee_angle_l	knee_angle_l_beta	ankle_angle_l	subtalar_angle_l	mtp_angle_l	lumbar_extension	lumbar_bending	lumbar_rotation	arm_flex_r	arm_add_r	arm_rot_r	elbow_flex_r	pro_sup_r	wrist_flex_r	wrist_dev_r	arm_flex_l	arm_add_l	arm_rot_l	elbow_flex_l	pro_sup_l	wrist_flex_l	wrist_dev_l
      0.85000000	      7.61416190	    -19.99101618	    -89.97091761	      0.40834766	      0.91038000	      0.15259830	     16.03721790	    -41.12823681	     -9.49342190	     62.67176058	      1.09382857	     11.47040088	      0.00000000	      0.00000000	     65.35328579	     29.91991376	     -0.48632389	     73.81810669	      1.28836901	    -13.94841895	      0.00000000	      0.00000000	    -34.08477741	     13.18856998	    -11.62765534	    -32.28796813	    -73.28823647	    -46.35052525	    147.54103493	     68.30013425	      0.00000000	      0.00000000	     44.90693029	    -17.33629476	     45.25870130	    120.32795748	     79.91846535	      0.00000000	      0.00000000
      0.85277778	      8.95552831	    -20.28862055	    -89.96897230	      0.41204819	      0.90841261	      0.15278813	     16.99059033	    -42.90015446	     -8.21763177	     63.08247336	      1.10099686	     11.17869910	      0.00000000	      0.00000000	     64.20422881	     29.90546530	     -1.09454539	     71.33400017	      1.24501317	    -13.95212653	      0.00000000	      0.00000000	    -34.28214036	     12.14958576	    -11.72374433	    -34.71996635	    -72.70691522	    -47.57887514	    147.14288096	     68.70628276	      0.00000000	      0.00000000	     45.04781208	    -17.76818270	     45.82729654	    119.44912103	     80.07425912	      0.00000000	      0.00000000
      0.85555556	     10.10526988	    -20.38801456	    -89.96687037	      0.41590182	      0.90605154	      0.15294506	     18.16879194	    -44.46982809	     -6.97624786	     63.45316965	      1.10746673	     10.73743258	      0.00000000	      0.00000000	     63.21480901	     29.88466911	     -1.45433336	     68.84741126	      1.20161401	    -14.04022310	      0.00000000	      0.00000000	    -34.29052575	     11.32245509	    -11.68101641	    -37.53593557	    -72.15689178	    -49.16079211	    146.70832387	     69.30544625	      0.00000000	      0.00000000	     45.28246521	    -18.09798018	     46.37365763	    118.49083622	     80.19772653	      0.00000000	      0.00000000
      0.85833333	     10.76962780	    -20.46763554	    -89.96516374	      0.41841476	      0.90453989	      0.15319696	     18.88417476	    -45.39578770	     -6.19290089	     63.67504281	      1.11133915	     10.44297877	      0.00000000	      0.00000000	     62.51159770	     29.86326232	     -1.56764097	     67.25790682	      1.17387192	    -14.08124950	      0.00000000	      0.00000000	    -34.29575989	     10.86447804	    -11.65712153	    -39.33418903	    -71.82242869	    -49.93991521	    146.44586989	     69.92849386	      0.00000000	      0.00000000	     45.44443778	    -18.29620864	     46.81479359	    117.83006080	     80.21116642	      0.00000000	      0.00000000
      0.86111111	     11.84232144	    -20.55965396	    -89.96289185	      0.42212986	      0.90215059	      0.15327541	     20.14817501	    -46.81116291	     -4.84272524	     63.99798797	      1.11697560	      9.99269965	      0.00000000	      0.00000000	     61.50919384	     29.81853466	     -1.81761319	     64.75831653	      1.13024584	    -14.35207650	      0.00000000	      0.00000000	    -34.30337773	     10.09312232	    -11.63724008	    -41.61123443	    -71.36945402	    -50.66567377	    146.00318720	     71.90626263	      0.00000000	      0.00000000	     45.74707678	    -18.61207315	     47.36055852	    116.82350539	     80.21811955	      0.00000000	      0.00000000
      0.86388889	     12.44568773	    -20.41441834	    -89.95987153	      0.42601262	      0.89940718	      0.15340666	     21.40008824	    -47.73473292	     -3.79792911	     64.37132559	      1.12349158	      9.69186746	      0.00000000	      0.00000000	     60.63230795	     29.70470017	     -1.49949733	     62.43312824	      1.08966365	    -14.45643306	      0.00000000	      0.00000000	    -34.08656735	      9.81430447	    -11.43467107	    -44.06057068	    -70.78880343	    -52.13893911	    145.38995866	     74.71325286	      0.00000000	      0.00000000	     46.16813981	    -18.82778907	     48.06836949	    115.68932051	     80.04364038	      0.00000000	      0.00000000
      0.86666667	     12.90835920	    -20.36384274	    -89.95707918	      0.42960040	      0.89697850	      0.15320216	     22.38998403	    -48.42943493	     -2.84423287	     64.60949204	      1.12764836	      9.31101618	      0.00000000	      0.00000000	     59.57783279	     29.43311423	     -1.11158775	     60.11584005	      1.04921934	    -14.62188001	      0.00000000	      0.00000000	    -34.01070916	      9.64630717	    -11.39994926	    -45.29064279	    -70.39436186	    -52.24987139	    144.58711176	     75.07782342	      0.00000000	      0.00000000	     46.61242269	    -19.25266787	     48.69321478	    114.60805683	     79.99418634	      0.00000000	      0.00000000
      0.86944444	     12.83158590	    -20.16887223	    -89.95552870	      0.43195376	      0.89506522	      0.15311545	     22.89170516	    -48.53589447	     -2.61572928	     64.80495583	      1.13105985	      9.31011562	      0.00000000	      0.00000000	     58.96362467	     29.06310065	     -0.53028755	     58.85739744	      1.02725537	    -14.16213109	      0.00000000	      0.00000000	    -33.80117079	      9.92862451	    -11.40279060	    -45.79506049	    -70.31743256	    -52.05734801	    143.95686519	     75.15538201	      0.00000000	      0.00000000	     46.77914706	    -19.57407082	     48.94319641	    113.96084006	     79.96158191	      0.00000000	      0.00000000
      0.87222222	     12.74621795	    -19.58572181	    -89.95496114	      0.43533743	      0.89143843	      0.15244695	     24.27050733	    -48.64613431	     -1.93400594	     65.26742606	      1.13913148	      9.04909599	      0.00000000	      0.00000000	     58.44344417	     28.33306890	      0.05174098	     56.50392703	      0.98617957	    -15.41633178	      0.00000000	      0.00000000	    -33.23201569	     10.28235068	    -11.05170154	    -47.65402356	    -69.76205991	    -52.88826121	    143.20919627	     75.61837347	      0.00000000	      0.00000000	     47.42650817	    -19.80746603	     49.72372677	    112.67100601	     79.69415229	      0.00000000	      0.00000000
      0.87500000	     12.36169393	    -19.08948627	    -89.95438935	      0.43847115	      0.88799229	      0.15188670	     25.17404905	    -48.50032143	     -1.72821740	     65.70374176	      1.14674662	      8.98668069	      0.00000000	      0.00000000	     57.78779046	     27.45281122	      0.91681494	     54.63365401	      0.95353714	    -15.31877936	      0.00000000	      0.00000000	    -32.75377733	     10.91302859	    -10.80427514	    -48.64772008	    -69.38836220	    -52.76470008	    142.27144733	     75.97995738	      0.00000000	      0.00000000	     48.04578465	    -20.18423395	     50.44222316	    111.41949728	     79.51439970	      0.00000000	      0.00000000
      0.87777778	     11.97618610	    -18.51548225	    -89.95432756	      0.44174305	      0.88438450	      0.15120173	     26.17271786	    -48.32283687	     -1.46010702	     66.12068475	      1.15402365	      8.91598409	      0.00000000	      0.00000000	     57.27962169	     26.55055189	      1.72126616	     52.61747047	      0.91834810	    -15.81131083	      0.00000000	      0.00000000	    -32.21311298	     11.54997172	    -10.52926061	    -49.87044374	    -69.10097137	    -52.88851561	    141.30608152	     76.79671152	      0.00000000	      0.00000000	     48.74137047	    -20.47634273	     51.19538756	    110.09552696	     79.24519124	      0.00000000	      0.00000000
      0.88055556	     11.48870532	    -17.76757932	    -89.95387831	      0.44543402	      0.88048632	      0.15070632	     27.27774157	    -48.09848805	     -1.30889312	     66.53191470	      1.16120097	      8.88771096	      0.00000000	      0.00000000	     56.96308057	     25.64438205	      2.67323790	     50.55459699	      0.88234417	    -16.60202319	      0.00000000	      0.00000000	    -31.47743775	     12.33875843	    -10.21313305	    -51.56362721	    -68.91395606	    -53.48935920	    140.33541528	     79.28885662	      0.00000000	      0.00000000	     49.36349762	    -20.69474087	     51.91421192	    108.76833820	     78.60923118	      0.00000000	      0.00000000
      0.88333333	     11.27186267	    -17.56831887	    -89.95376538	      0.44750231	      0.87844760	      0.15027231	     27.67479075	    -48.01548469	     -1.18804370	     66.74341817	      1.16489240	      8.90950872	      0.00000000	      0.00000000	     56.47426150	     25.06174333	      3.21759821	     49.40683697	      0.86231198	    -16.18788224	      0.00000000	      0.00000000	    -31.31426425	     12.70273470	    -10.08504231	    -52.03791065	    -68.84418583	    -53.06618614	    139.60119441	     79.75220921	      0.00000000	      0.00000000	     49.89494110	    -20.93421295	     52.43479843	    107.82971380	     78.50220418	      0.00000000	      0.00000000
      0.88611111	     10.74870545	    -16.96438726	    -89.95339538	      0.45097674	      0.87489028	      0.14962661	     28.49179794	    -47.71462342	     -1.13599319	     67.06977704	      1.17058844	      8.91025214	      0.00000000	      0.00000000	     56.06874377	     24.10889043	      4.20018841	     47.43856020	      0.82795907	    -16.76976010	      0.00000000	      0.00000000	    -30.75542967	     13.48660177	     -9.79563104	    -53.15375703	    -68.71637439	    -53.28432759	    138.39584528	     82.81118849	      0.00000000	      0.00000000	     50.65948880	    -21.16143975	     53.28862062	    106.37893672	     77.55144111	      0.00000000	      0.00000000
